<mxfile host="app.diagrams.net" modified="2023-11-13T06:40:46.607Z" agent="Mozilla/5.0 (Macintosh; Intel Mac OS X 10_15_7) AppleWebKit/537.36 (KHTML, like Gecko) Chrome/118.0.0.0 Safari/537.36" version="22.1.0" etag="OIcAWCiUxooNXbaFGydT" type="github">
  <diagram name="第 1 页" id="6j77EX0W18ILbV6BtygL">
    <mxGraphModel>
      <root>
        <mxCell id="0" />
        <mxCell id="1" parent="0" />
      </root>
    </mxGraphModel>
  </diagram>
</mxfile>
